<?xml version="1.0" standalone="no"?>
<svg xmlns:xlink="http://www.w3.org/1999/xlink" id="wave" style="transform:rotate(180deg); transition: 0.3s" viewBox="0 0 1440 100" version="1.1" xmlns="http://www.w3.org/2000/svg"><defs><linearGradient id="sw-gradient-0" x1="0" x2="0" y1="1" y2="0"><stop stop-color="rgba(255, 255, 255, 1)" offset="0%"/><stop stop-color="rgba(255, 255, 255, 1)" offset="100%"/></linearGradient></defs><path style="transform:translate(0, 0px); opacity:1" fill="url(#sw-gradient-0)" d="M0,40L48,45C96,50,192,60,288,58.3C384,57,480,43,576,38.3C672,33,768,37,864,41.7C960,47,1056,53,1152,61.7C1248,70,1344,80,1440,73.3C1536,67,1632,43,1728,30C1824,17,1920,13,2016,20C2112,27,2208,43,2304,53.3C2400,63,2496,67,2592,70C2688,73,2784,77,2880,65C2976,53,3072,27,3168,25C3264,23,3360,47,3456,46.7C3552,47,3648,23,3744,25C3840,27,3936,53,4032,60C4128,67,4224,53,4320,50C4416,47,4512,53,4608,48.3C4704,43,4800,27,4896,18.3C4992,10,5088,10,5184,20C5280,30,5376,50,5472,55C5568,60,5664,50,5760,51.7C5856,53,5952,67,6048,66.7C6144,67,6240,53,6336,45C6432,37,6528,33,6624,26.7C6720,20,6816,10,6864,5L6912,0L6912,100L6864,100C6816,100,6720,100,6624,100C6528,100,6432,100,6336,100C6240,100,6144,100,6048,100C5952,100,5856,100,5760,100C5664,100,5568,100,5472,100C5376,100,5280,100,5184,100C5088,100,4992,100,4896,100C4800,100,4704,100,4608,100C4512,100,4416,100,4320,100C4224,100,4128,100,4032,100C3936,100,3840,100,3744,100C3648,100,3552,100,3456,100C3360,100,3264,100,3168,100C3072,100,2976,100,2880,100C2784,100,2688,100,2592,100C2496,100,2400,100,2304,100C2208,100,2112,100,2016,100C1920,100,1824,100,1728,100C1632,100,1536,100,1440,100C1344,100,1248,100,1152,100C1056,100,960,100,864,100C768,100,672,100,576,100C480,100,384,100,288,100C192,100,96,100,48,100L0,100Z"/></svg>